<mxfile host="app.diagrams.net" modified="2022-06-22T08:53:53.216Z" agent="5.0 (Windows NT 10.0; Win64; x64) AppleWebKit/537.36 (KHTML, like Gecko) Chrome/102.0.0.0 Safari/537.36" etag="1mREEkYzTZECKH4Ngww2" version="20.0.1" type="github">
  <diagram id="BXQ0E2yjiXaStJMdlCIH" name="Page-1">
    <mxGraphModel dx="4783" dy="821" grid="1" gridSize="10" guides="1" tooltips="1" connect="1" arrows="1" fold="1" page="1" pageScale="1" pageWidth="3300" pageHeight="4681" math="0" shadow="0">
      <root>
        <mxCell id="0" />
        <mxCell id="1" parent="0" />
        <mxCell id="MG7FTxScQnKWqlu88ehi-1" style="edgeStyle=none;rounded=0;orthogonalLoop=1;jettySize=auto;html=1;exitX=0.5;exitY=1;exitDx=0;exitDy=0;entryX=0.5;entryY=0;entryDx=0;entryDy=0;fontSize=18;fontColor=#000000;strokeColor=#666666;strokeWidth=2;fontStyle=1;fillColor=#f5f5f5;" edge="1" parent="1" source="MG7FTxScQnKWqlu88ehi-2" target="MG7FTxScQnKWqlu88ehi-3">
          <mxGeometry relative="1" as="geometry" />
        </mxCell>
        <mxCell id="MG7FTxScQnKWqlu88ehi-2" value="A&lt;sub&gt;0&lt;/sub&gt;" style="rounded=1;whiteSpace=wrap;html=1;shadow=0;fontSize=18;fontStyle=1;fillColor=#f5f5f5;fontColor=#333333;strokeColor=#666666;" vertex="1" parent="1">
          <mxGeometry x="110" y="420" width="120" height="70" as="geometry" />
        </mxCell>
        <mxCell id="MG7FTxScQnKWqlu88ehi-3" value="A&lt;sub&gt;0&lt;/sub&gt;+A&lt;sub&gt;1&lt;/sub&gt;" style="rounded=1;whiteSpace=wrap;html=1;shadow=0;fontSize=18;fontStyle=1;fillColor=#f5f5f5;fontColor=#333333;strokeColor=#666666;" vertex="1" parent="1">
          <mxGeometry x="10" y="550" width="120" height="70" as="geometry" />
        </mxCell>
        <mxCell id="MG7FTxScQnKWqlu88ehi-4" value="A&lt;sub&gt;2&lt;/sub&gt;" style="rounded=1;whiteSpace=wrap;html=1;shadow=0;fontSize=18;fontStyle=1;fillColor=#f5f5f5;fontColor=#333333;strokeColor=#666666;" vertex="1" parent="1">
          <mxGeometry x="220" y="550" width="120" height="70" as="geometry" />
        </mxCell>
        <mxCell id="MG7FTxScQnKWqlu88ehi-5" value="Step0" style="text;html=1;strokeColor=none;fillColor=none;align=center;verticalAlign=middle;whiteSpace=wrap;rounded=0;shadow=0;fontSize=18;fontColor=#000000;fontStyle=1" vertex="1" parent="1">
          <mxGeometry x="50" y="380" width="60" height="30" as="geometry" />
        </mxCell>
        <mxCell id="MG7FTxScQnKWqlu88ehi-6" value="A&lt;sub&gt;0&lt;/sub&gt;" style="rounded=1;whiteSpace=wrap;html=1;shadow=0;fontSize=18;fontStyle=1;fillColor=#f5f5f5;fontColor=#333333;strokeColor=#666666;" vertex="1" parent="1">
          <mxGeometry x="510" y="420" width="120" height="70" as="geometry" />
        </mxCell>
        <mxCell id="MG7FTxScQnKWqlu88ehi-7" style="edgeStyle=none;rounded=0;orthogonalLoop=1;jettySize=auto;html=1;exitX=1;exitY=0.5;exitDx=0;exitDy=0;entryX=0;entryY=0.5;entryDx=0;entryDy=0;fontSize=18;fontColor=#000000;strokeColor=#666666;strokeWidth=2;fillColor=#f5f5f5;" edge="1" parent="1" source="MG7FTxScQnKWqlu88ehi-8" target="MG7FTxScQnKWqlu88ehi-9">
          <mxGeometry relative="1" as="geometry" />
        </mxCell>
        <mxCell id="MG7FTxScQnKWqlu88ehi-8" value="A&lt;sub&gt;0&lt;/sub&gt;+A&lt;sub&gt;1&lt;/sub&gt;" style="rounded=1;whiteSpace=wrap;html=1;shadow=0;fontSize=18;fontStyle=1;fillColor=#f5f5f5;fontColor=#333333;strokeColor=#666666;" vertex="1" parent="1">
          <mxGeometry x="410" y="550" width="120" height="70" as="geometry" />
        </mxCell>
        <mxCell id="MG7FTxScQnKWqlu88ehi-9" value="A&lt;sub&gt;0&lt;/sub&gt;+A&lt;sub&gt;1&lt;/sub&gt;+A&lt;sub&gt;2&lt;/sub&gt;" style="rounded=1;whiteSpace=wrap;html=1;shadow=0;fontSize=18;fontStyle=1;fillColor=#dae8fc;strokeColor=#6c8ebf;" vertex="1" parent="1">
          <mxGeometry x="620" y="550" width="120" height="70" as="geometry" />
        </mxCell>
        <mxCell id="MG7FTxScQnKWqlu88ehi-10" value="Step1" style="text;html=1;strokeColor=none;fillColor=none;align=center;verticalAlign=middle;whiteSpace=wrap;rounded=0;shadow=0;fontSize=18;fontColor=#000000;fontStyle=1" vertex="1" parent="1">
          <mxGeometry x="450" y="380" width="60" height="30" as="geometry" />
        </mxCell>
        <mxCell id="MG7FTxScQnKWqlu88ehi-11" value="A&lt;sub&gt;0&lt;/sub&gt;+A&lt;sub&gt;1&lt;/sub&gt;+A&lt;sub&gt;2&lt;/sub&gt;" style="rounded=1;whiteSpace=wrap;html=1;shadow=0;fontSize=18;fontStyle=1;fillColor=#dae8fc;strokeColor=#6c8ebf;" vertex="1" parent="1">
          <mxGeometry x="110" y="730" width="120" height="70" as="geometry" />
        </mxCell>
        <mxCell id="MG7FTxScQnKWqlu88ehi-12" value="A&lt;sub&gt;0&lt;/sub&gt;+A&lt;sub&gt;1&lt;/sub&gt;" style="rounded=1;whiteSpace=wrap;html=1;shadow=0;fontSize=18;fontStyle=1;fillColor=#f5f5f5;fontColor=#333333;strokeColor=#666666;" vertex="1" parent="1">
          <mxGeometry x="10" y="860" width="120" height="70" as="geometry" />
        </mxCell>
        <mxCell id="MG7FTxScQnKWqlu88ehi-13" style="edgeStyle=none;rounded=0;orthogonalLoop=1;jettySize=auto;html=1;exitX=0.5;exitY=0;exitDx=0;exitDy=0;entryX=0.5;entryY=1;entryDx=0;entryDy=0;fontSize=18;fontColor=#000000;strokeColor=#666666;strokeWidth=2;fillColor=#f5f5f5;" edge="1" parent="1" source="MG7FTxScQnKWqlu88ehi-14" target="MG7FTxScQnKWqlu88ehi-11">
          <mxGeometry relative="1" as="geometry" />
        </mxCell>
        <mxCell id="MG7FTxScQnKWqlu88ehi-14" value="A&lt;sub&gt;0&lt;/sub&gt;+A&lt;sub&gt;1&lt;/sub&gt;+A&lt;sub&gt;2&lt;/sub&gt;" style="rounded=1;whiteSpace=wrap;html=1;shadow=0;fontSize=18;fontStyle=1;fillColor=#dae8fc;strokeColor=#6c8ebf;" vertex="1" parent="1">
          <mxGeometry x="220" y="860" width="120" height="70" as="geometry" />
        </mxCell>
        <mxCell id="MG7FTxScQnKWqlu88ehi-15" value="Step2" style="text;html=1;align=center;verticalAlign=middle;whiteSpace=wrap;rounded=0;shadow=0;fontSize=18;fontStyle=1" vertex="1" parent="1">
          <mxGeometry x="50" y="690" width="60" height="30" as="geometry" />
        </mxCell>
        <mxCell id="MG7FTxScQnKWqlu88ehi-16" style="edgeStyle=none;rounded=0;orthogonalLoop=1;jettySize=auto;html=1;exitX=0.5;exitY=1;exitDx=0;exitDy=0;entryX=0.5;entryY=0;entryDx=0;entryDy=0;fontSize=18;fontColor=#000000;strokeColor=#666666;strokeWidth=2;fillColor=#f5f5f5;" edge="1" parent="1" source="MG7FTxScQnKWqlu88ehi-17" target="MG7FTxScQnKWqlu88ehi-18">
          <mxGeometry relative="1" as="geometry" />
        </mxCell>
        <mxCell id="MG7FTxScQnKWqlu88ehi-17" value="A&lt;sub&gt;0&lt;/sub&gt;+A&lt;sub&gt;1&lt;/sub&gt;+A&lt;sub&gt;2&lt;/sub&gt;" style="rounded=1;whiteSpace=wrap;html=1;shadow=0;fontSize=18;fontStyle=1;fillColor=#dae8fc;strokeColor=#6c8ebf;" vertex="1" parent="1">
          <mxGeometry x="510" y="730" width="120" height="70" as="geometry" />
        </mxCell>
        <mxCell id="MG7FTxScQnKWqlu88ehi-18" value="A&lt;sub&gt;0&lt;/sub&gt;+A&lt;sub&gt;1&lt;/sub&gt;+A&lt;sub&gt;2&lt;/sub&gt;" style="rounded=1;whiteSpace=wrap;html=1;shadow=0;fontSize=18;fontStyle=1;fillColor=#dae8fc;strokeColor=#6c8ebf;" vertex="1" parent="1">
          <mxGeometry x="410" y="860" width="120" height="70" as="geometry" />
        </mxCell>
        <mxCell id="MG7FTxScQnKWqlu88ehi-19" value="A&lt;sub&gt;0&lt;/sub&gt;+A&lt;sub&gt;1&lt;/sub&gt;+A&lt;sub&gt;2&lt;/sub&gt;" style="rounded=1;whiteSpace=wrap;html=1;shadow=0;fontSize=18;fontStyle=1;fillColor=#dae8fc;strokeColor=#6c8ebf;" vertex="1" parent="1">
          <mxGeometry x="620" y="860" width="120" height="70" as="geometry" />
        </mxCell>
        <mxCell id="MG7FTxScQnKWqlu88ehi-20" value="Step3" style="text;html=1;align=center;verticalAlign=middle;whiteSpace=wrap;rounded=0;shadow=0;fontSize=18;fontStyle=1" vertex="1" parent="1">
          <mxGeometry x="450" y="690" width="60" height="30" as="geometry" />
        </mxCell>
        <mxCell id="MG7FTxScQnKWqlu88ehi-21" value="&lt;b&gt;Scatter-Reduce阶段&lt;/b&gt;" style="text;html=1;strokeColor=none;fillColor=none;align=center;verticalAlign=middle;whiteSpace=wrap;rounded=0;shadow=0;fontSize=18;fontColor=#000000;" vertex="1" parent="1">
          <mxGeometry x="-220" y="490" width="190" height="30" as="geometry" />
        </mxCell>
        <mxCell id="MG7FTxScQnKWqlu88ehi-22" value="" style="endArrow=none;dashed=1;html=1;rounded=0;fontSize=18;fontColor=#000000;strokeColor=#000000;strokeWidth=2;" edge="1" parent="1">
          <mxGeometry width="50" height="50" relative="1" as="geometry">
            <mxPoint y="660" as="sourcePoint" />
            <mxPoint x="750" y="660" as="targetPoint" />
          </mxGeometry>
        </mxCell>
        <mxCell id="MG7FTxScQnKWqlu88ehi-23" value="&lt;b&gt;Allgather阶段&lt;/b&gt;" style="text;html=1;strokeColor=none;fillColor=none;align=center;verticalAlign=middle;whiteSpace=wrap;rounded=0;shadow=0;fontSize=18;fontColor=#000000;" vertex="1" parent="1">
          <mxGeometry x="-220" y="800" width="190" height="30" as="geometry" />
        </mxCell>
        <mxCell id="MG7FTxScQnKWqlu88ehi-24" value="" style="rounded=0;whiteSpace=wrap;html=1;shadow=0;fontSize=18;fillColor=none;" vertex="1" parent="1">
          <mxGeometry x="-220" y="350" width="1010" height="630" as="geometry" />
        </mxCell>
      </root>
    </mxGraphModel>
  </diagram>
</mxfile>
